<svg xmlns="http://www.w3.org/2000/svg" viewBox="0 0 1600 968" font-family="Helvetica, Arial, sans-serif">
<rect width="1600" height="968" rx="16" fill="#fbfbfb" stroke="#e7e5e3"/>
<text x="48" y="60" font-size="22" fill="#858280">interviews</text>
<text x="1552" y="60" font-size="22" fill="#cecac6" text-anchor="end">13 items</text>
<line x1="48" y1="84" x2="1552" y2="84" stroke="#e7e5e3"/>
<rect x="48" y="108" width="36" height="44" rx="6" fill="#edecec"/>
<path d="M 60 120 v 22 m 0 -22 l 14 -4 v 22" stroke="#858280" stroke-width="2.4" fill="none" stroke-linecap="round" stroke-linejoin="round"/>
<circle cx="58" cy="144" r="4.5" fill="#858280"/><circle cx="72" cy="140" r="4.5" fill="#858280"/>
<text x="112" y="148" font-size="24" fill="#231e17">IDI-01 furniture + lighting.mp3</text>
<text x="1320" y="148" font-size="22" fill="#858280">52:14</text>
<text x="1552" y="148" font-size="22" fill="#cecac6" text-anchor="end">Jan 18, 2026</text>
<rect x="48" y="172" width="36" height="44" rx="6" fill="#edecec"/>
<path d="M 60 184 v 22 m 0 -22 l 14 -4 v 22" stroke="#858280" stroke-width="2.4" fill="none" stroke-linecap="round" stroke-linejoin="round"/>
<circle cx="58" cy="208" r="4.5" fill="#858280"/><circle cx="72" cy="204" r="4.5" fill="#858280"/>
<text x="112" y="212" font-size="24" fill="#231e17">IDI-02 public artist.mp3</text>
<text x="1320" y="212" font-size="22" fill="#858280">43:02</text>
<text x="1552" y="212" font-size="22" fill="#cecac6" text-anchor="end">Jan 22, 2026</text>
<rect x="48" y="236" width="36" height="44" rx="6" fill="#edecec"/>
<path d="M 60 248 v 22 m 0 -22 l 14 -4 v 22" stroke="#858280" stroke-width="2.4" fill="none" stroke-linecap="round" stroke-linejoin="round"/>
<circle cx="58" cy="272" r="4.5" fill="#858280"/><circle cx="72" cy="268" r="4.5" fill="#858280"/>
<text x="112" y="276" font-size="24" fill="#231e17">IDI-03 ceramics studio.mp3</text>
<text x="1320" y="276" font-size="22" fill="#858280">38:47</text>
<text x="1552" y="276" font-size="22" fill="#cecac6" text-anchor="end">Jan 27, 2026</text>
<rect x="48" y="300" width="36" height="44" rx="6" fill="#edecec"/>
<path d="M 60 312 v 22 m 0 -22 l 14 -4 v 22" stroke="#858280" stroke-width="2.4" fill="none" stroke-linecap="round" stroke-linejoin="round"/>
<circle cx="58" cy="336" r="4.5" fill="#858280"/><circle cx="72" cy="332" r="4.5" fill="#858280"/>
<text x="112" y="340" font-size="24" fill="#231e17">IDI-04 textile designer.mp3</text>
<text x="1320" y="340" font-size="22" fill="#858280">56:31</text>
<text x="1552" y="340" font-size="22" fill="#cecac6" text-anchor="end">Feb 2, 2026</text>
<rect x="48" y="364" width="36" height="44" rx="6" fill="#edecec"/>
<path d="M 60 376 v 22 m 0 -22 l 14 -4 v 22" stroke="#858280" stroke-width="2.4" fill="none" stroke-linecap="round" stroke-linejoin="round"/>
<circle cx="58" cy="400" r="4.5" fill="#858280"/><circle cx="72" cy="396" r="4.5" fill="#858280"/>
<text x="112" y="404" font-size="24" fill="#231e17">IDI-05 furniture, 2-person shop.mp3</text>
<text x="1320" y="404" font-size="22" fill="#858280">47:55</text>
<text x="1552" y="404" font-size="22" fill="#cecac6" text-anchor="end">Feb 5, 2026</text>
<rect x="48" y="428" width="36" height="44" rx="6" fill="#edecec"/>
<path d="M 60 440 v 22 m 0 -22 l 14 -4 v 22" stroke="#858280" stroke-width="2.4" fill="none" stroke-linecap="round" stroke-linejoin="round"/>
<circle cx="58" cy="464" r="4.5" fill="#858280"/><circle cx="72" cy="460" r="4.5" fill="#858280"/>
<text x="112" y="468" font-size="24" fill="#231e17">IDI-06 jewelry + objects.mp3</text>
<text x="1320" y="468" font-size="22" fill="#858280">33:18</text>
<text x="1552" y="468" font-size="22" fill="#cecac6" text-anchor="end">Feb 9, 2026</text>
<rect x="48" y="492" width="36" height="44" rx="6" fill="#edecec"/>
<path d="M 60 504 v 22 m 0 -22 l 14 -4 v 22" stroke="#858280" stroke-width="2.4" fill="none" stroke-linecap="round" stroke-linejoin="round"/>
<circle cx="58" cy="528" r="4.5" fill="#858280"/><circle cx="72" cy="524" r="4.5" fill="#858280"/>
<text x="112" y="532" font-size="24" fill="#231e17">IDI-07 lighting designer.mp3</text>
<text x="1320" y="532" font-size="22" fill="#858280">41:26</text>
<text x="1552" y="532" font-size="22" fill="#cecac6" text-anchor="end">Feb 12, 2026</text>
<rect x="48" y="556" width="36" height="44" rx="6" fill="#edecec"/>
<path d="M 60 568 v 22 m 0 -22 l 14 -4 v 22" stroke="#858280" stroke-width="2.4" fill="none" stroke-linecap="round" stroke-linejoin="round"/>
<circle cx="58" cy="592" r="4.5" fill="#858280"/><circle cx="72" cy="588" r="4.5" fill="#858280"/>
<text x="112" y="596" font-size="24" fill="#231e17">IDI-08 interiors consultant.mp3</text>
<text x="1320" y="596" font-size="22" fill="#858280">58:03</text>
<text x="1552" y="596" font-size="22" fill="#cecac6" text-anchor="end">Feb 19, 2026</text>
<rect x="48" y="620" width="36" height="44" rx="6" fill="#edecec"/>
<path d="M 60 632 v 22 m 0 -22 l 14 -4 v 22" stroke="#858280" stroke-width="2.4" fill="none" stroke-linecap="round" stroke-linejoin="round"/>
<circle cx="58" cy="656" r="4.5" fill="#858280"/><circle cx="72" cy="652" r="4.5" fill="#858280"/>
<text x="112" y="660" font-size="24" fill="#231e17">IDI-09 sculpture, commissions.mp3</text>
<text x="1320" y="660" font-size="22" fill="#858280">36:40</text>
<text x="1552" y="660" font-size="22" fill="#cecac6" text-anchor="end">Feb 24, 2026</text>
<rect x="48" y="684" width="36" height="44" rx="6" fill="#edecec"/>
<path d="M 60 696 v 22 m 0 -22 l 14 -4 v 22" stroke="#858280" stroke-width="2.4" fill="none" stroke-linecap="round" stroke-linejoin="round"/>
<circle cx="58" cy="720" r="4.5" fill="#858280"/><circle cx="72" cy="716" r="4.5" fill="#858280"/>
<text x="112" y="724" font-size="24" fill="#231e17">IDI-10 woodworker, gallery rep.mp3</text>
<text x="1320" y="724" font-size="22" fill="#858280">49:12</text>
<text x="1552" y="724" font-size="22" fill="#cecac6" text-anchor="end">Mar 3, 2026</text>
<rect x="48" y="748" width="36" height="44" rx="6" fill="#edecec"/>
<path d="M 60 760 v 22 m 0 -22 l 14 -4 v 22" stroke="#858280" stroke-width="2.4" fill="none" stroke-linecap="round" stroke-linejoin="round"/>
<circle cx="58" cy="784" r="4.5" fill="#858280"/><circle cx="72" cy="780" r="4.5" fill="#858280"/>
<text x="112" y="788" font-size="24" fill="#231e17">IDI-11 brand + web studio.mp3</text>
<text x="1320" y="788" font-size="22" fill="#858280">44:58</text>
<text x="1552" y="788" font-size="22" fill="#cecac6" text-anchor="end">Mar 6, 2026</text>
<rect x="48" y="812" width="36" height="44" rx="6" fill="#edecec"/>
<path d="M 60 824 v 22 m 0 -22 l 14 -4 v 22" stroke="#858280" stroke-width="2.4" fill="none" stroke-linecap="round" stroke-linejoin="round"/>
<circle cx="58" cy="848" r="4.5" fill="#858280"/><circle cx="72" cy="844" r="4.5" fill="#858280"/>
<text x="112" y="852" font-size="24" fill="#231e17">IDI-12 collectible design.mp3</text>
<text x="1320" y="852" font-size="22" fill="#858280">51:37</text>
<text x="1552" y="852" font-size="22" fill="#cecac6" text-anchor="end">Mar 11, 2026</text>
<rect x="48" y="876" width="36" height="44" rx="6" fill="#edecec"/>
<path d="M 60 888 v 22 m 0 -22 l 14 -4 v 22" stroke="#858280" stroke-width="2.4" fill="none" stroke-linecap="round" stroke-linejoin="round"/>
<circle cx="58" cy="912" r="4.5" fill="#858280"/><circle cx="72" cy="908" r="4.5" fill="#858280"/>
<text x="112" y="916" font-size="24" fill="#231e17">IDI-13 furniture, solo practice.mp3</text>
<text x="1320" y="916" font-size="22" fill="#858280">39:21</text>
<text x="1552" y="916" font-size="22" fill="#cecac6" text-anchor="end">Mar 14, 2026</text>
</svg>